<?xml version="1.0" encoding="UTF-8" standalone="no"?>
<!-- Created with Inkscape (http://www.inkscape.org/) -->

<svg
   width="256"
   height="256"
   viewBox="0 0 256 256"
   version="1.1"
   id="svg5"
   inkscape:version="1.2.1 (9c6d41e410, 2022-07-14)"
   sodipodi:docname="PartyHat.svg"
   inkscape:export-filename="PartyHat.png"
   inkscape:export-xdpi="96"
   inkscape:export-ydpi="96"
   xmlns:inkscape="http://www.inkscape.org/namespaces/inkscape"
   xmlns:sodipodi="http://sodipodi.sourceforge.net/DTD/sodipodi-0.dtd"
   xmlns="http://www.w3.org/2000/svg"
   xmlns:svg="http://www.w3.org/2000/svg">
  <sodipodi:namedview
     id="namedview7"
     pagecolor="#ffffff"
     bordercolor="#000000"
     borderopacity="0.25"
     inkscape:showpageshadow="2"
     inkscape:pageopacity="0.0"
     inkscape:pagecheckerboard="true"
     inkscape:deskcolor="#d1d1d1"
     inkscape:document-units="px"
     showgrid="false"
     inkscape:zoom="4.7572176"
     inkscape:cx="82.506211"
     inkscape:cy="125.91394"
     inkscape:window-width="2736"
     inkscape:window-height="1714"
     inkscape:window-x="-12"
     inkscape:window-y="-12"
     inkscape:window-maximized="1"
     inkscape:current-layer="layer1" />
  <defs
     id="defs2" />
  <g
     inkscape:label="Layer 1"
     inkscape:groupmode="layer"
     id="layer1">
    <path
       sodipodi:type="star"
       style="fill:#ffd20a;fill-opacity:1;stroke:#ffd20a;stroke-width:16;stroke-linecap:round;stroke-linejoin:round;stroke-dasharray:none;stroke-opacity:1"
       id="path2240"
       inkscape:flatsided="true"
       sodipodi:sides="3"
       sodipodi:cx="108.46676"
       sodipodi:cy="135.79366"
       sodipodi:r1="90.560394"
       sodipodi:r2="45.280197"
       sodipodi:arg1="0.52359878"
       sodipodi:arg2="1.5707963"
       inkscape:rounded="0"
       inkscape:randomized="0"
       d="m 186.89436,181.07385 -156.855204,0 78.427604,-135.840589 z"
       inkscape:transform-center-y="-33.316206"
       transform="matrix(0.97953874,0,0,1.4715577,21.752608,-22.233084)" />
    <path
       id="rect3751"
       style="fill:#ff9c0a;fill-opacity:1;stroke:none;stroke-width:16;stroke-linecap:round;stroke-linejoin:round;stroke-dasharray:none;stroke-opacity:1"
       d="M 92.032536 134.052 L 36.338205 134.05257 C 18.457371 148.50644 1.5183122 162.21118 -17.432538 177.56514 L 85.213517 177.56602 C 88.416362 157.22314 90.282049 145.28944 92.032536 134.052 z "
       transform="rotate(-30)" />
    <path
       id="rect3753"
       style="fill:#ff9c0a;fill-opacity:1;stroke:none;stroke-width:16;stroke-linecap:round;stroke-linejoin:round;stroke-dasharray:none;stroke-opacity:1"
       d="M 79.596777 213.31012 L -61.488803 213.31033 C -71.763742 221.66556 -82.035268 230.01955 -82.29246 230.28863 C -83.997007 232.07192 -85.78309 235.47046 -86.312146 237.93843 C -86.943654 240.88434 -86.520753 243.91637 -85.226379 245.72579 C -84.915151 246.16097 -79.852417 249.18164 -66.705522 256.82251 L 72.683279 256.82371 C 74.784342 243.62202 76.500333 232.88994 79.596777 213.31012 z "
       transform="rotate(-30)" />
    <path
       id="rect3755"
       style="fill:#ff9c0a;fill-opacity:1;stroke:none;stroke-width:16;stroke-linecap:round;stroke-linejoin:round;stroke-dasharray:none;stroke-opacity:1"
       d="M 66.737903 294.1214 L -2.2018711 294.12235 L 50.603428 324.61401 L 51.812694 324.68747 C 54.090776 324.82727 57.066031 323.46258 59.309893 321.24881 C 60.715204 319.86236 62.53396 316.95235 63.216759 314.99755 C 63.405271 314.45785 64.586908 307.41582 66.737903 294.1214 z "
       transform="rotate(-30)" />
    <circle
       style="fill:#ff9c0a;fill-opacity:1;stroke:none;stroke-width:16;stroke-linecap:round;stroke-linejoin:round;stroke-dasharray:none;stroke-opacity:1"
       id="path4172"
       cx="127.84235"
       cy="18.81352"
       r="18.81352" />
  </g>
</svg>
